<mxfile host="app.diagrams.net" agent="Mozilla/5.0 (Macintosh; Intel Mac OS X 10_15_7) AppleWebKit/537.36 (KHTML, like Gecko) Chrome/141.0.0.0 Safari/537.36" version="28.2.5">
  <diagram name="DCM Architecture" id="w3VZtOD_ZxOiX5QpoPOc">
    <mxGraphModel dx="1479" dy="771" grid="1" gridSize="10" guides="1" tooltips="1" connect="1" arrows="1" fold="1" page="1" pageScale="1" pageWidth="1600" pageHeight="900" math="0" shadow="0">
      <root>
        <mxCell id="0" />
        <mxCell id="1" parent="0" />
        <mxCell id="1uujaNSlquaQUrppnZx2-1" value="Data Catalog Management (DCM) - Technical Metadata Flow Architecture" style="text;html=1;strokeColor=none;fillColor=none;align=center;verticalAlign=middle;whiteSpace=wrap;rounded=0;fontSize=20;fontStyle=1" vertex="1" parent="1">
          <mxGeometry x="680" y="330" width="800" height="40" as="geometry" />
        </mxCell>
        <mxCell id="1uujaNSlquaQUrppnZx2-2" value="HMS System" style="rounded=1;whiteSpace=wrap;html=1;fillColor=#dae8fc;strokeColor=#6c8ebf;verticalAlign=top;fontSize=14;fontStyle=1;align=center;" vertex="1" parent="1">
          <mxGeometry x="460" y="420" width="280" height="200" as="geometry" />
        </mxCell>
        <mxCell id="1uujaNSlquaQUrppnZx2-3" value="Hive Metastore&lt;br&gt;&lt;br&gt;(PostgreSQL)" style="shape=cylinder3;whiteSpace=wrap;html=1;boundedLbl=1;backgroundOutline=1;size=15;fillColor=#e1d5e7;strokeColor=#9673a6;" vertex="1" parent="1">
          <mxGeometry x="540" y="470" width="120" height="120" as="geometry" />
        </mxCell>
        <mxCell id="1uujaNSlquaQUrppnZx2-4" value="SDP (Hadoop Platform)" style="text;html=1;strokeColor=none;fillColor=none;align=center;verticalAlign=middle;whiteSpace=wrap;rounded=0;fontSize=11;fontStyle=2" vertex="1" parent="1">
          <mxGeometry x="510" y="440" width="160" height="20" as="geometry" />
        </mxCell>
        <mxCell id="1uujaNSlquaQUrppnZx2-5" value="ITC Hadoop Hive DB" style="rounded=1;whiteSpace=wrap;html=1;fillColor=#fff2cc;strokeColor=#d6b656;verticalAlign=top;fontSize=14;fontStyle=1;align=center;" vertex="1" parent="1">
          <mxGeometry x="860" y="420" width="380" height="380" as="geometry" />
        </mxCell>
        <mxCell id="1uujaNSlquaQUrppnZx2-6" value="Main Table&#xa;(Full Refresh)" style="shape=cylinder3;whiteSpace=wrap;html=1;boundedLbl=1;backgroundOutline=1;size=15;fillColor=#d5e8d4;strokeColor=#82b366;" vertex="1" parent="1">
          <mxGeometry x="930" y="480" width="120" height="100" as="geometry" />
        </mxCell>
        <mxCell id="1uujaNSlquaQUrppnZx2-7" value="CDC Table&#xa;(Incremental Changes)" style="shape=cylinder3;whiteSpace=wrap;html=1;boundedLbl=1;backgroundOutline=1;size=15;fillColor=#d5e8d4;strokeColor=#82b366;" vertex="1" parent="1">
          <mxGeometry x="1080" y="480" width="120" height="100" as="geometry" />
        </mxCell>
        <mxCell id="1uujaNSlquaQUrppnZx2-8" value="&lt;b&gt;CDC Captures:&lt;/b&gt;&#xa;• INSERT operations&#xa;• UPDATE operations&#xa;• DELETE operations" style="rounded=1;whiteSpace=wrap;html=1;fillColor=#f5f5f5;strokeColor=#666666;align=left;verticalAlign=top;fontSize=11;fontColor=#333333;" vertex="1" parent="1">
          <mxGeometry x="1110" y="570" width="120" height="70" as="geometry" />
        </mxCell>
        <mxCell id="1uujaNSlquaQUrppnZx2-9" value="&lt;b&gt;ITC Sync Process&lt;/b&gt;&#xa;&#xa;Synchronizes metadata&#xa;from HMS to Hive tables" style="rounded=1;whiteSpace=wrap;html=1;fillColor=#ffe6cc;strokeColor=#d79b00;fontSize=11;align=center;" vertex="1" parent="1">
          <mxGeometry x="900" y="730" width="180" height="60" as="geometry" />
        </mxCell>
        <mxCell id="1uujaNSlquaQUrppnZx2-10" value="DCM System" style="rounded=1;whiteSpace=wrap;html=1;fillColor=#f8cecc;strokeColor=#b85450;verticalAlign=top;fontSize=14;fontStyle=1;align=center;" vertex="1" parent="1">
          <mxGeometry x="1420" y="540" width="320" height="280" as="geometry" />
        </mxCell>
        <mxCell id="1uujaNSlquaQUrppnZx2-11" value="DCM&#xa;Oracle Database" style="shape=cylinder3;whiteSpace=wrap;html=1;boundedLbl=1;backgroundOutline=1;size=15;fillColor=#e1d5e7;strokeColor=#9673a6;" vertex="1" parent="1">
          <mxGeometry x="1520" y="620" width="120" height="120" as="geometry" />
        </mxCell>
        <mxCell id="1uujaNSlquaQUrppnZx2-12" value="&lt;b&gt;DCM Pull Process&lt;/b&gt;&#xa;&#xa;Extracts and syncs&#xa;metadata to Oracle DB" style="rounded=1;whiteSpace=wrap;html=1;fillColor=#ffe6cc;strokeColor=#d79b00;fontSize=11;align=center;" vertex="1" parent="1">
          <mxGeometry x="1490" y="760" width="180" height="50" as="geometry" />
        </mxCell>
        <mxCell id="1uujaNSlquaQUrppnZx2-13" style="edgeStyle=orthogonalEdgeStyle;rounded=0;orthogonalLoop=1;jettySize=auto;html=1;strokeWidth=2;fillColor=#dae8fc;strokeColor=#6c8ebf;entryX=0;entryY=0.5;entryDx=0;entryDy=0;entryPerimeter=0;" edge="1" parent="1" source="1uujaNSlquaQUrppnZx2-3" target="1uujaNSlquaQUrppnZx2-6">
          <mxGeometry relative="1" as="geometry">
            <mxPoint x="860" y="530" as="targetPoint" />
          </mxGeometry>
        </mxCell>
        <mxCell id="1uujaNSlquaQUrppnZx2-14" value="Full metadata sync" style="edgeLabel;html=1;align=center;verticalAlign=middle;resizable=0;points=[];fontSize=10;fontColor=#0000FF;" vertex="1" connectable="0" parent="1uujaNSlquaQUrppnZx2-13">
          <mxGeometry x="-0.1" y="2" relative="1" as="geometry">
            <mxPoint x="10" y="-8" as="offset" />
          </mxGeometry>
        </mxCell>
        <mxCell id="1uujaNSlquaQUrppnZx2-15" style="edgeStyle=orthogonalEdgeStyle;rounded=0;orthogonalLoop=1;jettySize=auto;html=1;strokeWidth=2;fillColor=#dae8fc;strokeColor=#6c8ebf;entryX=0.5;entryY=0;entryDx=0;entryDy=0;entryPerimeter=0;" edge="1" parent="1" source="1uujaNSlquaQUrppnZx2-3" target="1uujaNSlquaQUrppnZx2-7">
          <mxGeometry relative="1" as="geometry">
            <mxPoint x="1080" y="530" as="targetPoint" />
            <Array as="points">
              <mxPoint x="600" y="460" />
              <mxPoint x="1140" y="460" />
            </Array>
          </mxGeometry>
        </mxCell>
        <mxCell id="1uujaNSlquaQUrppnZx2-16" value="Change data capture" style="edgeLabel;html=1;align=center;verticalAlign=middle;resizable=0;points=[];fontSize=10;fontColor=#0000FF;" vertex="1" connectable="0" parent="1uujaNSlquaQUrppnZx2-15">
          <mxGeometry x="-0.1" y="2" relative="1" as="geometry">
            <mxPoint x="20" y="12" as="offset" />
          </mxGeometry>
        </mxCell>
        <mxCell id="1uujaNSlquaQUrppnZx2-17" style="edgeStyle=orthogonalEdgeStyle;rounded=0;orthogonalLoop=1;jettySize=auto;html=1;strokeWidth=2;fillColor=#fff2cc;strokeColor=#d6b656;exitX=0.5;exitY=1;exitDx=0;exitDy=0;exitPerimeter=0;entryX=-0.008;entryY=0.592;entryDx=0;entryDy=0;entryPerimeter=0;" edge="1" parent="1" source="1uujaNSlquaQUrppnZx2-6" target="1uujaNSlquaQUrppnZx2-11">
          <mxGeometry relative="1" as="geometry">
            <mxPoint x="1380" y="530" as="targetPoint" />
            <Array as="points">
              <mxPoint x="990" y="690" />
              <mxPoint x="1050" y="690" />
              <mxPoint x="1050" y="691" />
            </Array>
          </mxGeometry>
        </mxCell>
        <mxCell id="1uujaNSlquaQUrppnZx2-18" value="DCM pulls full data (First Time load)" style="edgeLabel;html=1;align=center;verticalAlign=middle;resizable=0;points=[];fontSize=10;fontColor=#CC6600;" vertex="1" connectable="0" parent="1uujaNSlquaQUrppnZx2-17">
          <mxGeometry x="-0.1" y="2" relative="1" as="geometry">
            <mxPoint x="76" y="-8" as="offset" />
          </mxGeometry>
        </mxCell>
        <mxCell id="1uujaNSlquaQUrppnZx2-19" style="edgeStyle=orthogonalEdgeStyle;rounded=0;orthogonalLoop=1;jettySize=auto;html=1;strokeWidth=2;fillColor=#fff2cc;strokeColor=#d6b656;exitX=1;exitY=0.5;exitDx=0;exitDy=0;exitPerimeter=0;entryX=0.145;entryY=0;entryDx=0;entryDy=4.35;entryPerimeter=0;" edge="1" parent="1" source="1uujaNSlquaQUrppnZx2-7" target="1uujaNSlquaQUrppnZx2-11">
          <mxGeometry relative="1" as="geometry">
            <mxPoint x="1380" y="560" as="targetPoint" />
            <Array as="points">
              <mxPoint x="1320" y="530" />
              <mxPoint x="1320" y="590" />
              <mxPoint x="1537" y="590" />
            </Array>
          </mxGeometry>
        </mxCell>
        <mxCell id="1uujaNSlquaQUrppnZx2-20" value="DCM pulls incremental changes" style="edgeLabel;html=1;align=center;verticalAlign=middle;resizable=0;points=[];fontSize=10;fontColor=#CC6600;" vertex="1" connectable="0" parent="1uujaNSlquaQUrppnZx2-19">
          <mxGeometry x="-0.1" y="2" relative="1" as="geometry">
            <mxPoint x="66" y="-8" as="offset" />
          </mxGeometry>
        </mxCell>
      </root>
    </mxGraphModel>
  </diagram>
</mxfile>
